<?xml version="1.0" encoding="UTF-8" standalone="no"?><!DOCTYPE svg PUBLIC "-//W3C//DTD SVG 1.1//EN" "http://www.w3.org/Graphics/SVG/1.1/DTD/svg11.dtd"><svg width="100%" height="100%" viewBox="0 0 2481 3508" version="1.1" xmlns="http://www.w3.org/2000/svg" xmlns:xlink="http://www.w3.org/1999/xlink" xml:space="preserve" xmlns:serif="http://www.serif.com/" style="fill-rule:evenodd;clip-rule:evenodd;stroke-linejoin:round;stroke-miterlimit:2;"><path d="M603.257,823.927c-44.658,0 -87.458,-5.983 -128.388,-17.946c-40.946,-11.963 -73.904,-27.508 -98.883,-46.65l43.858,-97.288c23.925,17.021 52.233,30.975 84.929,41.867c32.692,10.9 65.788,16.346 99.279,16.346c25.521,0 46.117,-2.513 61.804,-7.575c15.675,-5.046 27.237,-12.087 34.688,-21.133c7.442,-9.029 11.167,-19.4 11.167,-31.096c0,-14.883 -5.858,-26.717 -17.546,-35.487c-11.7,-8.775 -27.112,-15.95 -46.25,-21.533c-19.137,-5.583 -40.271,-10.892 -63.4,-15.95c-23.125,-5.046 -46.25,-11.287 -69.375,-18.737c-23.129,-7.442 -44.263,-17.008 -63.4,-28.708c-19.137,-11.688 -34.688,-27.117 -46.65,-46.254c-11.962,-19.137 -17.942,-43.583 -17.942,-73.363c0,-31.9 8.637,-61.004 25.917,-87.321c17.271,-26.317 43.325,-47.312 78.15,-63c34.813,-15.675 78.55,-23.525 131.179,-23.525c35.087,0 69.642,4.125 103.671,12.362c34.017,8.246 64.058,20.608 90.112,37.079l-39.875,98.088c-26.054,-14.879 -52.108,-25.917 -78.15,-33.096c-26.054,-7.175 -51.571,-10.767 -76.554,-10.767c-24.996,0 -45.454,2.929 -61.404,8.775c-15.95,5.854 -27.388,13.433 -34.288,22.725c-6.917,9.308 -10.371,20.075 -10.371,32.296c0,14.354 5.846,25.921 17.546,34.692c11.688,8.771 27.112,15.825 46.25,21.129c19.142,5.325 40.271,10.646 63.4,15.954c23.125,5.317 46.25,11.437 69.379,18.337c23.125,6.917 44.258,16.225 63.396,27.913c19.138,11.7 34.688,27.113 46.65,46.25c11.962,19.142 17.942,43.338 17.942,72.571c0,31.375 -8.771,60.083 -26.317,86.125c-17.542,26.054 -43.733,47.05 -78.546,62.996c-34.829,15.95 -78.825,23.925 -131.979,23.925" style="fill:#65366d;fill-rule:nonzero;"/><path d="M1252.372,386.924c19.662,17.021 29.504,40.946 29.504,71.771c0,30.304 -9.842,54.1 -29.504,71.371c-19.679,17.283 -49.442,25.917 -89.317,25.917l-105.263,0l0,-194.575l105.263,0c39.875,0 69.638,8.508 89.317,25.517m170.654,427.433l-124.721,-178.971c0.367,-0.158 0.754,-0.292 1.117,-0.454c36.146,-15.95 64.054,-38.938 83.733,-68.979c19.658,-30.029 29.504,-65.792 29.504,-107.258c0,-63.262 -21.533,-112.837 -64.596,-148.725c-43.062,-35.883 -103.408,-53.825 -181.021,-53.825l-238.438,0l0,558.213l129.188,0l0,-155.5l112.442,0c2.038,0 3.996,-0.096 6.013,-0.125l107.225,155.625l139.554,0Z" style="fill:#65366d;fill-rule:nonzero;"/><path d="M1827.315,707.916c-59.354,34.492 -146.8,75.638 -226.321,75.779l-0.204,0c-31.171,0 -60.771,-7.454 -86.071,-21.442l0,52.104l253.587,0c60.608,0 114.038,-11.562 160.292,-34.688c46.246,-23.129 82.396,-55.546 108.45,-97.292c26.004,-41.667 39.033,-90.629 39.071,-146.888l-18.95,-16.075c-55.771,66.496 -142.437,137.733 -229.854,188.5" style="fill:#65366d;fill-rule:nonzero;"/><path d="M1525.74,681.67c14.092,8.917 44.329,16.833 108.308,3.958c3.267,-0.667 6.562,-1.404 9.854,-2.175l0,-321.25l118.029,0c37.2,0 69.496,7.054 96.883,21.133c27.379,14.092 48.646,34.025 63.8,59.808c8.817,15.008 14.987,31.733 18.671,50.071c17.146,-17.479 29.817,-31.829 36.833,-40.487c-4.233,-3.325 -9.513,-7.275 -14.196,-10.633l-22.283,-15.975l96.862,-35.988c-0.496,-0.8 -0.954,-1.617 -1.454,-2.412c-26.054,-41.467 -62.204,-73.763 -108.45,-96.888c-46.254,-23.129 -99.683,-34.687 -160.292,-34.687l-253.592,0l0,415.033c2.808,4.1 6.446,7.596 11.025,10.492" style="fill:#65366d;fill-rule:nonzero;"/><path d="M2105.558,380.777l-22.425,141.542l-27.871,-23.65c-51.975,65.788 -141.075,141.933 -235.271,196.638c-75.196,43.696 -153.646,73.687 -219.025,73.804c-31.412,0.033 -60.204,-8.162 -83.021,-21.696c-56.117,-33.342 -75.892,-99.125 -8.908,-154.188c-8.971,9.608 -34.987,73 8.908,100.767c20.833,13.175 57.379,18.329 118.979,5.933c7.521,-1.533 15.008,-3.312 22.504,-5.346c83.867,-22.954 164.433,-77.679 225.825,-129.538c5.396,-4.538 10.663,-9.079 15.725,-13.562c59.779,-52.696 97.712,-99.096 96.338,-101.129c-2.867,-4.317 -24.896,-20.108 -24.896,-20.108l133.129,-49.467" style="fill:#800f33;fill-rule:nonzero;"/><path d="M412.97,982.655l-2.971,-3.229l28.804,0c9.729,0 17.117,-2.129 22.154,-6.396c5.037,-4.258 7.554,-10.267 7.554,-18.017c0,-7.838 -2.517,-13.888 -7.554,-18.146c-5.038,-4.267 -12.425,-6.396 -22.154,-6.396l-28.804,0l2.971,-3.229l0,55.413Zm-6.587,32.292l0,-90.417l32.421,0c7.579,0 14.079,1.208 19.504,3.617c5.425,2.412 9.604,5.875 12.529,10.396c2.925,4.521 4.392,10.013 4.392,16.471c0,6.287 -1.467,11.712 -4.392,16.275c-2.925,4.562 -7.104,8.054 -12.529,10.462c-5.425,2.413 -11.925,3.617 -19.504,3.617l-28.804,0l2.971,-3.1l0,32.679l-6.587,0Z" style="fill:#800f33;fill-rule:nonzero;"/><path d="M609.562,1014.947l0,-15.371l-0.258,-2.325l0,-25.317c0,-6.283 -1.7,-11.067 -5.1,-14.337c-3.404,-3.271 -8.375,-4.908 -14.921,-4.908c-4.65,0 -8.975,0.796 -12.979,2.392c-4.004,1.592 -7.429,3.638 -10.271,6.133l-3.229,-4.65c3.358,-3.012 7.404,-5.362 12.142,-7.037c4.737,-1.679 9.688,-2.521 14.854,-2.521c8.354,0 14.767,2.108 19.246,6.329c4.479,4.221 6.717,10.504 6.717,18.858l0,42.754l-6.2,0Zm-24.283,0.517c-4.996,0 -9.321,-0.792 -12.979,-2.387c-3.662,-1.596 -6.458,-3.854 -8.396,-6.783c-1.938,-2.925 -2.908,-6.283 -2.908,-10.075c0,-3.442 0.796,-6.562 2.388,-9.362c1.596,-2.8 4.246,-5.083 7.946,-6.85c3.7,-1.763 8.654,-2.646 14.854,-2.646l24.8,0l0,5.038l-24.671,0c-6.975,0 -11.862,1.292 -14.658,3.875c-2.8,2.583 -4.2,5.812 -4.2,9.688c0,4.308 1.638,7.75 4.908,10.333c3.271,2.583 7.879,3.875 13.821,3.875c5.683,0 10.483,-1.292 14.404,-3.875c3.917,-2.583 6.821,-6.329 8.717,-11.238l1.808,4.392c-1.808,4.908 -4.887,8.808 -9.233,11.692c-4.35,2.883 -9.883,4.325 -16.6,4.325" style="fill:#800f33;fill-rule:nonzero;"/><path d="M714.703,1014.947l0,-67.425l6.2,0l0,18.471l-0.646,-2.067c1.892,-5.425 5.079,-9.6 9.558,-12.529c4.475,-2.925 10.075,-4.392 16.792,-4.392l0,6.329c-0.258,0 -0.517,-0.021 -0.775,-0.067c-0.258,-0.042 -0.517,-0.062 -0.775,-0.062c-7.492,0 -13.35,2.346 -17.567,7.037c-4.221,4.696 -6.329,11.217 -6.329,19.571l0,35.133l-6.458,0Z" style="fill:#800f33;fill-rule:nonzero;"/><path d="M859.499,1015.464c-5.942,0 -10.487,-1.637 -13.629,-4.908c-3.142,-3.271 -4.712,-7.75 -4.712,-13.433l0,-64.325l6.458,0l0,63.679c0,4.308 1.075,7.621 3.229,9.946c2.15,2.325 5.25,3.487 9.3,3.487c4.217,0 7.704,-1.25 10.462,-3.746l2.712,4.521c-1.725,1.637 -3.812,2.842 -6.267,3.617c-2.45,0.775 -4.971,1.162 -7.554,1.162m-30.742,-67.942l40.3,0l0,5.554l-40.3,0l0,-5.554Z" style="fill:#800f33;fill-rule:nonzero;"/><path d="M963.607,1014.947l0,-67.425l6.2,0l0,18.729l-0.904,-2.067c2.067,-5.337 5.467,-9.538 10.204,-12.592c4.733,-3.054 10.546,-4.587 17.438,-4.587c5.508,0 10.308,1.054 14.4,3.163c4.092,2.112 7.275,5.3 9.558,9.558c2.283,4.267 3.425,9.542 3.425,15.825l0,39.396l-6.458,0l0,-38.879c0,-7.575 -1.917,-13.346 -5.75,-17.308c-3.833,-3.963 -9.192,-5.942 -16.079,-5.942c-5.254,0 -9.817,1.079 -13.692,3.229c-3.875,2.154 -6.825,5.167 -8.85,9.042c-2.025,3.875 -3.033,8.525 -3.033,13.95l0,35.908l-6.458,0Z" style="fill:#800f33;fill-rule:nonzero;"/><path d="M1150.252,1015.464c-6.804,0 -12.808,-1.467 -18.021,-4.392c-5.213,-2.929 -9.3,-6.975 -12.271,-12.142c-2.971,-5.167 -4.454,-11.062 -4.454,-17.696c0,-6.717 1.396,-12.637 4.196,-17.762c2.796,-5.121 6.654,-9.146 11.558,-12.075c4.912,-2.925 10.421,-4.392 16.533,-4.392c6.117,0 11.604,1.421 16.471,4.263c4.862,2.842 8.696,6.825 11.496,11.95c2.796,5.121 4.2,11.042 4.2,17.758c0,0.258 -0.025,0.542 -0.067,0.842c-0.042,0.3 -0.062,0.621 -0.062,0.967l-59.546,0l0,-5.038l56.058,0l-2.583,2.454c0.083,-5.254 -1.017,-9.962 -3.292,-14.142c-2.283,-4.175 -5.367,-7.45 -9.237,-9.821c-3.875,-2.362 -8.354,-3.55 -13.438,-3.55c-4.992,0 -9.446,1.188 -13.367,3.55c-3.921,2.371 -6.996,5.646 -9.233,9.821c-2.242,4.179 -3.358,8.933 -3.358,14.271l0,1.162c0,5.513 1.225,10.4 3.679,14.658c2.454,4.267 5.833,7.583 10.138,9.95c4.304,2.367 9.217,3.546 14.729,3.546c4.3,0 8.329,-0.771 12.075,-2.321c3.746,-1.55 6.912,-3.921 9.496,-7.104l3.742,4.262c-2.929,3.617 -6.604,6.354 -11.042,8.2c-4.433,1.854 -9.238,2.779 -14.4,2.779" style="fill:#800f33;fill-rule:nonzero;"/><path d="M1272.31,1014.947l0,-67.425l6.2,0l0,18.471l-0.646,-2.067c1.892,-5.425 5.079,-9.6 9.558,-12.529c4.475,-2.925 10.075,-4.392 16.792,-4.392l0,6.329c-0.258,0 -0.517,-0.021 -0.775,-0.067c-0.258,-0.042 -0.517,-0.062 -0.775,-0.062c-7.492,0 -13.35,2.346 -17.567,7.037c-4.221,4.696 -6.329,11.217 -6.329,19.571l0,35.133l-6.458,0Z" style="fill:#800f33;fill-rule:nonzero;"/><path d="M1412.199,1015.464c-5.6,0 -10.829,-0.817 -15.696,-2.454c-4.867,-1.633 -8.633,-3.704 -11.3,-6.2l2.971,-5.167c2.583,2.242 6.029,4.158 10.333,5.746c4.304,1.596 8.954,2.392 13.954,2.392c7.058,0 12.138,-1.163 15.237,-3.487c3.1,-2.325 4.65,-5.379 4.65,-9.171c0,-2.754 -0.796,-4.929 -2.388,-6.525c-1.596,-1.592 -3.729,-2.821 -6.392,-3.679c-2.675,-0.863 -5.6,-1.571 -8.788,-2.129c-3.188,-0.562 -6.371,-1.183 -9.558,-1.879c-3.183,-0.688 -6.117,-1.675 -8.783,-2.967c-2.671,-1.292 -4.804,-3.079 -6.392,-5.362c-1.596,-2.275 -2.392,-5.312 -2.392,-9.104c0,-3.442 0.946,-6.542 2.842,-9.3c1.892,-2.758 4.737,-4.975 8.525,-6.65c3.787,-1.683 8.525,-2.521 14.208,-2.521c4.221,0 8.458,0.604 12.725,1.808c4.258,1.208 7.725,2.8 10.396,4.779l-2.971,5.167c-2.842,-2.15 -6.025,-3.7 -9.558,-4.65c-3.533,-0.946 -7.104,-1.421 -10.721,-1.421c-6.546,0 -11.346,1.208 -14.4,3.617c-3.062,2.413 -4.587,5.425 -4.587,9.042c0,2.842 0.796,5.1 2.387,6.783c1.596,1.679 3.725,2.967 6.4,3.871c2.662,0.904 5.592,1.638 8.779,2.2c3.188,0.558 6.371,1.183 9.558,1.871c3.188,0.692 6.117,1.658 8.783,2.904c2.667,1.25 4.8,2.971 6.396,5.167c1.588,2.2 2.388,5.15 2.388,8.85c0,3.704 -1.013,6.929 -3.037,9.688c-2.021,2.758 -5.017,4.908 -8.975,6.458c-3.962,1.55 -8.825,2.325 -14.596,2.325" style="fill:#800f33;fill-rule:nonzero;"/><path d="M1660.588,1015.594c-6.717,0 -13.071,-1.142 -19.054,-3.421c-5.988,-2.283 -10.613,-5.233 -13.883,-8.85l2.971,-4.908c3.1,3.188 7.338,5.875 12.721,8.071c5.379,2.196 11.083,3.292 17.117,3.292c6.025,0 10.958,-0.792 14.792,-2.388c3.829,-1.592 6.667,-3.721 8.521,-6.392c1.854,-2.671 2.775,-5.638 2.775,-8.917c0,-3.871 -1.033,-6.971 -3.1,-9.296c-2.067,-2.329 -4.775,-4.175 -8.138,-5.554c-3.354,-1.379 -7.017,-2.538 -10.979,-3.487c-3.958,-0.946 -7.962,-1.958 -12.008,-3.033c-4.05,-1.079 -7.754,-2.475 -11.108,-4.2c-3.358,-1.721 -6.054,-4.071 -8.075,-7.042c-2.021,-2.971 -3.033,-6.821 -3.033,-11.558c0,-4.304 1.117,-8.271 3.354,-11.888c2.237,-3.612 5.729,-6.542 10.467,-8.779c4.733,-2.237 10.804,-3.362 18.212,-3.362c4.992,0 9.921,0.737 14.788,2.2c4.867,1.462 9.021,3.446 12.467,5.938l-2.458,5.3c-3.787,-2.583 -7.854,-4.5 -12.2,-5.75c-4.35,-1.246 -8.55,-1.871 -12.596,-1.871c-5.771,0 -10.55,0.817 -14.337,2.454c-3.792,1.633 -6.588,3.812 -8.396,6.521c-1.812,2.712 -2.712,5.75 -2.712,9.108c0,3.871 1.012,6.971 3.033,9.3c2.025,2.325 4.717,4.175 8.075,5.554c3.354,1.375 7.058,2.538 11.108,3.487c4.042,0.946 8.05,1.958 12.008,3.033c3.963,1.079 7.625,2.475 10.979,4.196c3.362,1.725 6.071,4.05 8.138,6.979c2.067,2.925 3.104,6.712 3.104,11.367c0,4.217 -1.167,8.158 -3.487,11.821c-2.325,3.654 -5.879,6.587 -10.658,8.779c-4.775,2.196 -10.913,3.296 -18.404,3.296" style="fill:#800f33;fill-rule:nonzero;"/><path d="M1808.61,936.541l-20.279,-15.238l9.296,0l17.958,15.238l-6.975,0Zm19.633,78.404l0,-15.371l-0.263,-2.325l0,-25.317c0,-6.283 -1.7,-11.062 -5.1,-14.333c-3.404,-3.271 -8.375,-4.913 -14.917,-4.913c-4.65,0 -8.979,0.796 -12.983,2.392c-4.004,1.592 -7.429,3.638 -10.267,6.133l-3.233,-4.646c3.362,-3.017 7.408,-5.363 12.142,-7.042c4.737,-1.679 9.692,-2.517 14.858,-2.517c8.35,0 14.767,2.108 19.246,6.325c4.475,4.221 6.713,10.508 6.713,18.862l0,42.75l-6.196,0Zm-24.283,0.517c-4.996,0 -9.325,-0.792 -12.983,-2.387c-3.658,-1.596 -6.458,-3.854 -8.396,-6.783c-1.938,-2.925 -2.904,-6.283 -2.904,-10.075c0,-3.442 0.792,-6.562 2.388,-9.362c1.596,-2.8 4.237,-5.083 7.942,-6.846c3.704,-1.762 8.654,-2.65 14.858,-2.65l24.8,0l0,5.042l-24.671,0c-6.975,0 -11.867,1.288 -14.663,3.875c-2.8,2.583 -4.2,5.808 -4.2,9.688c0,4.304 1.638,7.746 4.908,10.329c3.271,2.583 7.883,3.875 13.825,3.875c5.683,0 10.479,-1.292 14.4,-3.875c3.917,-2.583 6.821,-6.325 8.717,-11.238l1.812,4.396c-1.812,4.904 -4.892,8.804 -9.237,11.688c-4.35,2.887 -9.883,4.325 -16.596,4.325" style="fill:#800f33;fill-rule:nonzero;"/><path d="M1933.382,1014.947l0,-67.425l6.2,0l0,18.471l-0.646,-2.067c1.892,-5.425 5.079,-9.6 9.558,-12.529c4.475,-2.925 10.075,-4.392 16.792,-4.392l0,6.329c-0.258,0 -0.517,-0.021 -0.775,-0.067c-0.258,-0.042 -0.517,-0.062 -0.775,-0.062c-7.492,0 -13.35,2.346 -17.567,7.037c-4.221,4.696 -6.329,11.217 -6.329,19.571l0,35.133l-6.458,0Z" style="fill:#800f33;fill-rule:nonzero;"/><rect x="2055.45" y="919.104" width="6.458" height="95.842" style="fill:#800f33;"/></svg>