<?xml version="1.0" encoding="UTF-8"?>
<svg id="uuid-5480f18b-4905-473d-aaec-ca5ab8a7ff45" data-name="Calque 1" xmlns="http://www.w3.org/2000/svg" width="512" height="391.58" viewBox="0 0 512 391.58">
  <path d="M262.4,15.61l-51.04,163.6h-36l-30.53-100.26-30.53,100.26h-36L27.7,15.61h40.56l29.17,100.26,31.44-100.26h31.9l31.9,100.26,29.62-100.26h40.56-.46Z" style="fill: #fff;"/>
  <path d="M324.83,15.61v163.6h-37.82V15.61h37.82Z" style="fill: #fff;"/>
  <path d="M495.72,15.61v163.6h-29.17l-73.83-89.78v89.78s-37.82,0-37.82,0V15.61h29.17l73.83,92.05V15.61h37.82Z" style="fill: #fff;"/>
  <path d="M260.57,327.32c0,27.34-20.51,45.57-55.14,45.57h-77.02v-163.6h72.46c33.27,0,52.86,16.86,52.86,43.75s-7.75,30.99-21.42,36c18.68,4.56,27.8,20.96,27.8,38.74,0,0,.46-.46.46-.46ZM166.24,242.56v34.18h28.71c14.58,0,22.33-7.75,22.33-18.23s-7.75-15.95-22.33-15.95h-28.71ZM223.2,321.85c0-10.03-7.75-15.95-22.33-15.95h-35.09v32.81h34.18c15.95,0,22.79-7.29,22.79-17.32h0s.46.46.46.46Z" style="fill: #fff;"/>
  <path d="M324.83,179.22v193.68h-37.82v-139.45l37.82-54.23Z" style="fill: #fff;"/>
  <path d="M495.72,209.29h-141.27v37.82h81.57l-81.57,96.16v29.62h141.27v-37.82h-81.57l81.57-101.62v-24.61.46Z" style="fill: #fff;"/>
</svg>